<mxfile host="Electron" modified="2023-12-22T16:41:07.082Z" agent="Mozilla/5.0 (Windows NT 10.0; Win64; x64) AppleWebKit/537.36 (KHTML, like Gecko) draw.io/22.1.2 Chrome/114.0.5735.289 Electron/25.9.4 Safari/537.36" etag="2ujIMynqagl6K2Pqx6WX" version="22.1.2" type="device">
  <diagram name="Page-1" id="x4i7u47j-QyjUtT9_2pe">
    <mxGraphModel dx="1195" dy="704" grid="1" gridSize="10" guides="1" tooltips="1" connect="1" arrows="1" fold="1" page="1" pageScale="1" pageWidth="850" pageHeight="1100" math="0" shadow="0">
      <root>
        <mxCell id="0" />
        <mxCell id="1" parent="0" />
        <mxCell id="duJDVojoRx_qbbgkANKf-5" value="shapes" style="shape=module;align=left;spacingLeft=20;align=center;verticalAlign=top;whiteSpace=wrap;html=1;" vertex="1" parent="1">
          <mxGeometry x="120" y="270" width="330" height="210" as="geometry" />
        </mxCell>
        <mxCell id="duJDVojoRx_qbbgkANKf-10" value="Shape" style="swimlane;fontStyle=3;align=center;verticalAlign=top;childLayout=stackLayout;horizontal=1;startSize=26;horizontalStack=0;resizeParent=1;resizeParentMax=0;resizeLast=0;collapsible=1;marginBottom=0;whiteSpace=wrap;html=1;fillColor=#fff2cc;strokeColor=#d6b656;" vertex="1" parent="1">
          <mxGeometry x="210" y="310" width="160" height="52" as="geometry">
            <mxRectangle x="250" y="320" width="80" height="30" as="alternateBounds" />
          </mxGeometry>
        </mxCell>
        <mxCell id="duJDVojoRx_qbbgkANKf-16" value="Draw(canvas:Canvas)" style="text;strokeColor=none;fillColor=none;align=left;verticalAlign=top;spacingLeft=4;spacingRight=4;overflow=hidden;rotatable=0;points=[[0,0.5],[1,0.5]];portConstraint=eastwest;whiteSpace=wrap;html=1;fontStyle=2" vertex="1" parent="duJDVojoRx_qbbgkANKf-10">
          <mxGeometry y="26" width="160" height="26" as="geometry" />
        </mxCell>
        <mxCell id="duJDVojoRx_qbbgkANKf-14" value="Triangle" style="swimlane;fontStyle=1;align=center;verticalAlign=top;childLayout=stackLayout;horizontal=1;startSize=26;horizontalStack=0;resizeParent=1;resizeParentMax=0;resizeLast=0;collapsible=1;marginBottom=0;whiteSpace=wrap;html=1;" vertex="1" collapsed="1" parent="1">
          <mxGeometry x="180" y="430" width="90" height="30" as="geometry">
            <mxRectangle x="160" y="680" width="160" height="52" as="alternateBounds" />
          </mxGeometry>
        </mxCell>
        <mxCell id="duJDVojoRx_qbbgkANKf-15" value="Circle" style="swimlane;fontStyle=1;align=center;verticalAlign=top;childLayout=stackLayout;horizontal=1;startSize=26;horizontalStack=0;resizeParent=1;resizeParentMax=0;resizeLast=0;collapsible=1;marginBottom=0;whiteSpace=wrap;html=1;" vertex="1" collapsed="1" parent="1">
          <mxGeometry x="320" y="430" width="70" height="30" as="geometry">
            <mxRectangle x="360" y="680" width="160" height="52" as="alternateBounds" />
          </mxGeometry>
        </mxCell>
        <mxCell id="duJDVojoRx_qbbgkANKf-17" value="Extends" style="endArrow=block;endSize=16;endFill=0;html=1;rounded=0;" edge="1" parent="1" source="duJDVojoRx_qbbgkANKf-14" target="duJDVojoRx_qbbgkANKf-10">
          <mxGeometry width="160" relative="1" as="geometry">
            <mxPoint x="240" y="640" as="sourcePoint" />
            <mxPoint x="400" y="640" as="targetPoint" />
          </mxGeometry>
        </mxCell>
        <mxCell id="duJDVojoRx_qbbgkANKf-18" value="Extends" style="endArrow=block;endSize=16;endFill=0;html=1;rounded=0;" edge="1" parent="1" source="duJDVojoRx_qbbgkANKf-15" target="duJDVojoRx_qbbgkANKf-10">
          <mxGeometry width="160" relative="1" as="geometry">
            <mxPoint x="240" y="640" as="sourcePoint" />
            <mxPoint x="400" y="640" as="targetPoint" />
          </mxGeometry>
        </mxCell>
        <mxCell id="duJDVojoRx_qbbgkANKf-19" value="graphics" style="shape=module;align=left;spacingLeft=20;align=center;verticalAlign=top;whiteSpace=wrap;html=1;" vertex="1" parent="1">
          <mxGeometry x="520" y="280" width="460" height="200" as="geometry" />
        </mxCell>
        <mxCell id="duJDVojoRx_qbbgkANKf-24" value="&lt;i&gt;Canvas&lt;/i&gt;" style="swimlane;fontStyle=1;align=center;verticalAlign=top;childLayout=stackLayout;horizontal=1;startSize=26;horizontalStack=0;resizeParent=1;resizeParentMax=0;resizeLast=0;collapsible=1;marginBottom=0;whiteSpace=wrap;html=1;fillColor=#fff2cc;strokeColor=#d6b656;" vertex="1" collapsed="1" parent="1">
          <mxGeometry x="600" y="321" width="80" height="30" as="geometry">
            <mxRectangle x="660" y="280" width="160" height="52" as="alternateBounds" />
          </mxGeometry>
        </mxCell>
        <mxCell id="duJDVojoRx_qbbgkANKf-29" value="&lt;span style=&quot;font-style: normal;&quot;&gt;BitmapCanvas&lt;/span&gt;" style="swimlane;fontStyle=3;align=center;verticalAlign=top;childLayout=stackLayout;horizontal=1;startSize=26;horizontalStack=0;resizeParent=1;resizeParentMax=0;resizeLast=0;collapsible=1;marginBottom=0;whiteSpace=wrap;html=1;" vertex="1" parent="1">
          <mxGeometry x="550" y="400" width="160" height="52" as="geometry" />
        </mxCell>
        <mxCell id="duJDVojoRx_qbbgkANKf-30" value="&lt;span style=&quot;font-style: normal;&quot;&gt;WindowCanvas&lt;/span&gt;" style="swimlane;fontStyle=3;align=center;verticalAlign=top;childLayout=stackLayout;horizontal=1;startSize=26;horizontalStack=0;resizeParent=1;resizeParentMax=0;resizeLast=0;collapsible=1;marginBottom=0;whiteSpace=wrap;html=1;" vertex="1" collapsed="1" parent="1">
          <mxGeometry x="780" y="408" width="130" height="30" as="geometry">
            <mxRectangle x="780" y="408" width="160" height="52" as="alternateBounds" />
          </mxGeometry>
        </mxCell>
        <mxCell id="duJDVojoRx_qbbgkANKf-31" value="Use" style="endArrow=open;endSize=12;dashed=1;html=1;rounded=0;" edge="1" parent="1" source="duJDVojoRx_qbbgkANKf-10" target="duJDVojoRx_qbbgkANKf-24">
          <mxGeometry width="160" relative="1" as="geometry">
            <mxPoint x="510" y="560" as="sourcePoint" />
            <mxPoint x="670" y="560" as="targetPoint" />
          </mxGeometry>
        </mxCell>
        <mxCell id="duJDVojoRx_qbbgkANKf-32" value="Extends" style="endArrow=block;endSize=16;endFill=0;html=1;rounded=0;" edge="1" parent="1" source="duJDVojoRx_qbbgkANKf-29" target="duJDVojoRx_qbbgkANKf-24">
          <mxGeometry width="160" relative="1" as="geometry">
            <mxPoint x="700" y="560" as="sourcePoint" />
            <mxPoint x="860" y="560" as="targetPoint" />
          </mxGeometry>
        </mxCell>
        <mxCell id="duJDVojoRx_qbbgkANKf-33" value="Extends" style="endArrow=block;endSize=16;endFill=0;html=1;rounded=0;" edge="1" parent="1" source="duJDVojoRx_qbbgkANKf-30" target="duJDVojoRx_qbbgkANKf-24">
          <mxGeometry width="160" relative="1" as="geometry">
            <mxPoint x="700" y="560" as="sourcePoint" />
            <mxPoint x="860" y="560" as="targetPoint" />
          </mxGeometry>
        </mxCell>
        <mxCell id="duJDVojoRx_qbbgkANKf-34" value="main" style="shape=module;align=left;spacingLeft=20;align=center;verticalAlign=top;whiteSpace=wrap;html=1;" vertex="1" parent="1">
          <mxGeometry x="350" y="560" width="360" height="140" as="geometry" />
        </mxCell>
        <mxCell id="duJDVojoRx_qbbgkANKf-35" value="Application" style="swimlane;fontStyle=1;align=center;verticalAlign=top;childLayout=stackLayout;horizontal=1;startSize=26;horizontalStack=0;resizeParent=1;resizeParentMax=0;resizeLast=0;collapsible=1;marginBottom=0;whiteSpace=wrap;html=1;" vertex="1" parent="1">
          <mxGeometry x="460" y="600" width="160" height="52" as="geometry" />
        </mxCell>
        <mxCell id="duJDVojoRx_qbbgkANKf-39" value="" style="endArrow=diamondThin;endFill=1;endSize=24;html=1;rounded=0;" edge="1" parent="1" source="duJDVojoRx_qbbgkANKf-30" target="duJDVojoRx_qbbgkANKf-35">
          <mxGeometry width="160" relative="1" as="geometry">
            <mxPoint x="500" y="530" as="sourcePoint" />
            <mxPoint x="660" y="530" as="targetPoint" />
          </mxGeometry>
        </mxCell>
        <mxCell id="duJDVojoRx_qbbgkANKf-40" value="Use" style="endArrow=open;endSize=12;dashed=1;html=1;rounded=0;" edge="1" parent="1" source="duJDVojoRx_qbbgkANKf-35" target="duJDVojoRx_qbbgkANKf-15">
          <mxGeometry width="160" relative="1" as="geometry">
            <mxPoint x="400" y="560" as="sourcePoint" />
            <mxPoint x="560" y="560" as="targetPoint" />
          </mxGeometry>
        </mxCell>
        <mxCell id="duJDVojoRx_qbbgkANKf-41" value="Use" style="endArrow=open;endSize=12;dashed=1;html=1;rounded=0;" edge="1" parent="1" source="duJDVojoRx_qbbgkANKf-35" target="duJDVojoRx_qbbgkANKf-14">
          <mxGeometry width="160" relative="1" as="geometry">
            <mxPoint x="400" y="560" as="sourcePoint" />
            <mxPoint x="560" y="560" as="targetPoint" />
          </mxGeometry>
        </mxCell>
        <mxCell id="duJDVojoRx_qbbgkANKf-42" value="Use" style="endArrow=open;endSize=12;dashed=1;html=1;rounded=0;" edge="1" parent="1" source="duJDVojoRx_qbbgkANKf-15" target="duJDVojoRx_qbbgkANKf-24">
          <mxGeometry width="160" relative="1" as="geometry">
            <mxPoint x="460" y="500" as="sourcePoint" />
            <mxPoint x="620" y="500" as="targetPoint" />
          </mxGeometry>
        </mxCell>
        <mxCell id="duJDVojoRx_qbbgkANKf-43" value="Use" style="endArrow=open;endSize=12;dashed=1;html=1;rounded=0;" edge="1" parent="1" source="duJDVojoRx_qbbgkANKf-14" target="duJDVojoRx_qbbgkANKf-24">
          <mxGeometry width="160" relative="1" as="geometry">
            <mxPoint x="460" y="500" as="sourcePoint" />
            <mxPoint x="620" y="500" as="targetPoint" />
          </mxGeometry>
        </mxCell>
        <mxCell id="duJDVojoRx_qbbgkANKf-44" value="Неустойчивый" style="shape=module;align=left;spacingLeft=20;align=center;verticalAlign=top;whiteSpace=wrap;html=1;" vertex="1" parent="1">
          <mxGeometry x="450" y="840" width="130" height="50" as="geometry" />
        </mxCell>
        <mxCell id="duJDVojoRx_qbbgkANKf-45" value="Неустойчивый" style="shape=module;align=left;spacingLeft=20;align=center;verticalAlign=top;whiteSpace=wrap;html=1;" vertex="1" parent="1">
          <mxGeometry x="640" y="840" width="130" height="50" as="geometry" />
        </mxCell>
        <mxCell id="duJDVojoRx_qbbgkANKf-46" value="Устойчивый" style="shape=module;align=left;spacingLeft=20;align=center;verticalAlign=top;whiteSpace=wrap;html=1;" vertex="1" parent="1">
          <mxGeometry x="530" y="950" width="130" height="50" as="geometry" />
        </mxCell>
        <mxCell id="duJDVojoRx_qbbgkANKf-47" value="UServer" style="shape=module;align=left;spacingLeft=20;align=center;verticalAlign=top;whiteSpace=wrap;html=1;" vertex="1" parent="1">
          <mxGeometry x="540" y="1040" width="130" height="60" as="geometry" />
        </mxCell>
        <mxCell id="duJDVojoRx_qbbgkANKf-48" value="US" style="html=1;whiteSpace=wrap;fontStyle=2" vertex="1" parent="1">
          <mxGeometry x="600" y="1070" width="40" height="20" as="geometry" />
        </mxCell>
        <mxCell id="duJDVojoRx_qbbgkANKf-49" value="Flexible" style="shape=module;align=left;spacingLeft=20;align=center;verticalAlign=top;whiteSpace=wrap;html=1;" vertex="1" parent="1">
          <mxGeometry x="685" y="950" width="130" height="60" as="geometry" />
        </mxCell>
        <mxCell id="duJDVojoRx_qbbgkANKf-50" value="C" style="html=1;whiteSpace=wrap;fontStyle=0" vertex="1" parent="1">
          <mxGeometry x="730" y="980" width="40" height="20" as="geometry" />
        </mxCell>
        <mxCell id="duJDVojoRx_qbbgkANKf-52" value="" style="endArrow=open;endSize=12;dashed=1;html=1;rounded=0;" edge="1" parent="1" source="duJDVojoRx_qbbgkANKf-46" target="duJDVojoRx_qbbgkANKf-48">
          <mxGeometry width="160" relative="1" as="geometry">
            <mxPoint x="150" y="920" as="sourcePoint" />
            <mxPoint x="310" y="920" as="targetPoint" />
          </mxGeometry>
        </mxCell>
        <mxCell id="duJDVojoRx_qbbgkANKf-53" value="" style="endArrow=open;endSize=12;dashed=1;html=1;rounded=0;" edge="1" parent="1" source="duJDVojoRx_qbbgkANKf-45" target="duJDVojoRx_qbbgkANKf-46">
          <mxGeometry width="160" relative="1" as="geometry">
            <mxPoint x="611" y="1010" as="sourcePoint" />
            <mxPoint x="628" y="1080" as="targetPoint" />
          </mxGeometry>
        </mxCell>
        <mxCell id="duJDVojoRx_qbbgkANKf-54" value="" style="endArrow=open;endSize=12;dashed=1;html=1;rounded=0;" edge="1" parent="1" source="duJDVojoRx_qbbgkANKf-44" target="duJDVojoRx_qbbgkANKf-46">
          <mxGeometry width="160" relative="1" as="geometry">
            <mxPoint x="690" y="900" as="sourcePoint" />
            <mxPoint x="630" y="960" as="targetPoint" />
          </mxGeometry>
        </mxCell>
        <mxCell id="duJDVojoRx_qbbgkANKf-55" value="Use" style="endArrow=open;endSize=12;dashed=1;html=1;rounded=0;" edge="1" parent="1">
          <mxGeometry width="160" relative="1" as="geometry">
            <mxPoint x="60" y="1180" as="sourcePoint" />
            <mxPoint x="220" y="1180" as="targetPoint" />
          </mxGeometry>
        </mxCell>
        <mxCell id="duJDVojoRx_qbbgkANKf-56" value="" style="endArrow=block;dashed=1;endFill=0;endSize=12;html=1;rounded=0;" edge="1" parent="1" source="duJDVojoRx_qbbgkANKf-50" target="duJDVojoRx_qbbgkANKf-48">
          <mxGeometry width="160" relative="1" as="geometry">
            <mxPoint x="720" y="1110" as="sourcePoint" />
            <mxPoint x="880" y="1110" as="targetPoint" />
          </mxGeometry>
        </mxCell>
      </root>
    </mxGraphModel>
  </diagram>
</mxfile>
